<svg width="1000" height="1000" viewBox="0 0 1000 1000" fill="none" xmlns="http://www.w3.org/2000/svg">
<g clip-path="url(#clip0_3_1012)">
<g clip-path="url(#clip1_3_1012)">
<path d="M912.073 209.168C966.1 273.05 959.966 387.31 937.857 478.972C915.501 570.866 876.941 640.44 822.913 723.504C768.886 806.568 699.437 903.323 607.525 925.688C515.614 948.054 401.7 895.785 301.502 812.721C201.303 729.657 114.588 615.336 91.5103 478.234C68.4478 340.87 108.7 180.418 208.914 116.536C309.128 52.6533 469.489 85.3251 606.787 108.429C743.824 131.764 858.03 145.285 912.073 209.168Z" fill="#F1F1F1"/>
<path d="M483.48 309.245C481.389 319.474 483.665 392.709 480.636 404.261C477.607 415.813 443.997 556.991 443.997 556.991L497.456 542.209C497.456 542.209 516.198 501 522.994 463.898C528.975 431.241 528.114 309.814 483.48 309.245Z" fill="#D18C65"/>
<path d="M431.589 341.578H396.904L377.039 266.205H411.74L431.589 341.578Z" fill="black"/>
<path d="M880.785 551.161H503.929V928.196H880.785V551.161Z" fill="#E0E0E0"/>
<path d="M573.715 664.39C594.689 664.39 611.692 647.38 611.692 626.396C611.692 605.412 594.689 588.402 573.715 588.402C552.742 588.402 535.739 605.412 535.739 626.396C535.739 647.38 552.742 664.39 573.715 664.39Z" fill="#A4A4A4"/>
<path d="M643.61 610.106H836.151" stroke="white" stroke-width="2.04" stroke-linecap="round" stroke-linejoin="round"/>
<path d="M643.61 642.67H728.972" stroke="white" stroke-width="2.04" stroke-linecap="round" stroke-linejoin="round"/>
<path d="M643.61 723.396H836.151" stroke="white" stroke-width="2.04" stroke-linecap="round" stroke-linejoin="round"/>
<path d="M643.61 755.96H728.972" stroke="white" stroke-width="2.04" stroke-linecap="round" stroke-linejoin="round"/>
<path d="M643.61 836.671H836.151" stroke="white" stroke-width="2.04" stroke-linecap="round" stroke-linejoin="round"/>
<path d="M643.61 869.235H728.972" stroke="white" stroke-width="2.04" stroke-linecap="round" stroke-linejoin="round"/>
<path d="M573.715 777.665C594.689 777.665 611.692 760.655 611.692 739.671C611.692 718.687 594.689 701.677 573.715 701.677C552.742 701.677 535.739 718.687 535.739 739.671C535.739 760.655 552.742 777.665 573.715 777.665Z" fill="white"/>
<path d="M573.715 890.955C594.689 890.955 611.692 873.944 611.692 852.961C611.692 831.977 594.689 814.967 573.715 814.967C552.742 814.967 535.739 831.977 535.739 852.961C535.739 873.944 552.742 890.955 573.715 890.955Z" fill="white"/>
<path d="M144.139 905.876L179.578 885.464L201.995 926.534L160.713 946.931L144.139 905.876Z" fill="#E49D75"/>
<path d="M404.145 885.464L412.047 930.857L459.971 922.704L444.166 871.189L404.145 885.464Z" fill="#E49D75"/>
<path d="M522.748 523.919C508.633 524.689 277.04 575.004 274.027 586.802C249.227 683.587 390.877 886.756 401.285 892.909C412.509 890.202 450.808 876.85 450.808 876.85L442.014 741.378L522.748 523.919Z" fill="#5FC5D1"/>
<path d="M171.152 953.299L142.862 894.139L65.8798 820.443L46 831.395L122.214 977.526L171.152 953.299Z" fill="black"/>
<path d="M463.599 911.829L399.055 923.335L307.513 977.896L312.786 1000L473.885 965.482L463.599 911.829Z" fill="black"/>
<path d="M701.404 463.898C710.414 471.112 719.854 503.63 720.946 514.659C732.738 642.609 522.239 717.951 493.089 730.595C465.414 753.745 224.026 931.78 209.313 935.994C194.599 940.209 170.537 883.695 172.643 876.142C174.75 868.589 528.543 512.767 528.543 512.767L701.404 463.898Z" fill="#6BD5E1"/>
<path d="M532.142 233.579C502.36 218.858 474.824 299.6 477.468 308.845C480.113 318.089 507.449 320.735 514.368 320.735C521.287 320.735 532.142 233.579 532.142 233.579Z" fill="#FFC78E"/>
<path d="M589.244 187.263C697.945 187.263 708.2 446.531 706.97 464.221C695.993 500.277 564.321 543.593 523.793 519.889C459.479 369.02 489.107 187.263 589.244 187.263Z" fill="#FFD98E"/>
<path d="M697.684 315.09C703.757 325.457 716.825 393.016 715.519 401.83C714.212 410.644 693.994 432.887 686.798 433.379C584.493 440.332 473.532 399.431 452.791 387.94C409.403 384.479 383.727 368.805 383.727 345.885C383.727 332.349 391.23 322.596 395.365 322.596C403.207 322.596 417.136 336.117 418.828 340.071C415.445 333.118 404.836 320.351 413.569 320.351C415.999 320.351 435.709 347.916 446.41 354.607C457.111 361.298 611.553 366.913 642.518 378.172C638.567 370.297 627.497 341.747 627.312 337.625C627.128 333.502 697.684 315.09 697.684 315.09Z" fill="#E49D75"/>
<path d="M396.016 143.425L338.168 154.927C331.772 156.198 327.617 162.417 328.889 168.816L340.385 226.691C341.656 233.09 347.871 237.247 354.268 235.975L412.115 224.474C418.511 223.202 422.666 216.983 421.395 210.584L409.899 152.709C408.628 146.31 402.412 142.153 396.016 143.425Z" fill="#6BD5E1"/>
<path d="M368.352 213.998L361.418 215.382C360.811 215.503 360.187 215.503 359.58 215.382C358.973 215.261 358.396 215.022 357.882 214.677C357.368 214.333 356.927 213.891 356.584 213.375C356.241 212.86 356.003 212.282 355.883 211.675L352.654 195.493C352.41 194.265 352.663 192.99 353.358 191.949C354.053 190.908 355.132 190.185 356.36 189.94L363.294 188.571M378.561 180.726L376.716 171.497C376.538 170.585 376.181 169.718 375.667 168.945C375.153 168.173 374.491 167.509 373.719 166.993C372.947 166.477 372.082 166.118 371.171 165.938C370.261 165.758 369.323 165.76 368.414 165.944L363.294 188.602L368.352 214.029L394.49 208.845C395.607 208.638 396.612 208.033 397.319 207.143C398.025 206.252 398.386 205.135 398.333 203.999L397.396 182.464C397.336 181.214 396.782 180.039 395.857 179.197C394.932 178.354 393.71 177.914 392.46 177.973C392.207 177.988 391.956 178.019 391.707 178.065L378.561 180.726Z" stroke="white" stroke-width="2.04" stroke-linecap="round" stroke-linejoin="round"/>
<path d="M386.987 249.208L394.182 228.011L372.227 232.38L386.987 249.208Z" fill="#6BD5E1"/>
<path d="M620.501 207.922C667.564 190.663 704.772 299.446 703.249 313.229C701.727 327.011 626.374 351.146 617.888 346.162C609.401 341.178 573.854 225.027 620.501 207.922Z" fill="#FFE4AD"/>
<path d="M592.319 140.086C591.812 146.623 595.794 183.156 602.021 195.077C599.269 200.492 570.979 216.228 557.433 212.859C555.588 202.738 550.684 175.557 546.671 167.282C553.913 163.498 592.319 140.086 592.319 140.086Z" fill="#D18C65"/>
<path d="M557.556 171.799C590.501 163.054 608.326 122.475 597.37 81.1646C586.414 39.8538 550.826 13.4542 517.882 22.1996C484.937 30.9449 467.112 71.5235 478.068 112.834C489.024 154.145 524.612 180.545 557.556 171.799Z" fill="#E49D75"/>
<path d="M566.705 95.9851C563.291 96.1697 550.269 89.5245 547.378 69.5891C537.984 68.0509 496.564 72.4656 474.855 89.5861C466.813 92.6625 460.294 95.2314 448.133 95.2314C442.367 95.2314 437.478 89.2015 437.478 85.0637C437.478 73.6654 442.367 62.621 456.651 61.8826C444.627 61.6211 433.48 54.1915 433.48 48.7154C433.48 41.4396 450.009 19.12 478.837 28.9031C472.072 24.0115 464.43 19.243 464.43 14.613C464.43 6.69112 475.823 -1 495.749 -1C526.576 -1 560.17 11.7827 567.427 20.9351C570.81 19.1815 575.115 15.9205 583.356 15.9205C603.897 15.9205 610.785 82.4949 601.898 104.815C599.697 106.229 597.234 107.186 594.656 107.629" fill="#FD8369"/>
<path d="M566.09 97.4465C567.109 94.5438 568.986 92.0194 571.472 90.2078C573.957 88.3962 576.934 87.3829 580.008 87.3021C583.083 87.2213 586.109 88.0769 588.686 89.7554C591.263 91.4339 593.27 93.8562 594.44 96.7014C595.611 99.5466 595.889 102.68 595.239 105.688C594.59 108.695 593.042 111.433 590.801 113.541C588.561 115.648 585.733 117.025 582.693 117.488C579.653 117.952 576.544 117.48 573.777 116.136" fill="#E49D75"/>
</g>
</g>
<defs>
<clipPath id="clip0_3_1012">
<rect width="1000" height="1000" rx="200" fill="white"/>
</clipPath>
<clipPath id="clip1_3_1012">
<rect width="908" height="1001" fill="white" transform="translate(46 -1)"/>
</clipPath>
</defs>
</svg>
